<svg width="150" height="62" viewBox="0 0 150 62" fill="none" xmlns="http://www.w3.org/2000/svg">
<g id="Frame 10">
<g id="Group 17">
<g id="craftlab">
<path d="M1.96582 31.3052C1.96582 29.1569 2.39548 27.2866 3.2548 25.6943C4.11412 24.0768 5.30201 22.8257 6.81846 21.9411C8.36018 21.0565 10.1167 20.6142 12.0881 20.6142C14.6408 20.6142 16.7386 21.2334 18.3814 22.4719C20.0495 23.7103 21.1489 25.4289 21.6797 27.6278H17.9644C17.6105 26.3641 16.9155 25.3658 15.8792 24.6328C14.8683 23.8999 13.6046 23.5334 12.0881 23.5334C10.1167 23.5334 8.52446 24.2158 7.3113 25.5806C6.09814 26.9201 5.49156 28.8283 5.49156 31.3052C5.49156 33.8073 6.09814 35.7408 7.3113 37.1056C8.52446 38.4704 10.1167 39.1528 12.0881 39.1528C13.6046 39.1528 14.8683 38.799 15.8792 38.0913C16.8902 37.3836 17.5852 36.3727 17.9644 35.0584H21.6797C21.1236 37.1814 20.0116 38.8874 18.3435 40.1764C16.6754 41.4401 14.5903 42.072 12.0881 42.072C10.1167 42.072 8.36018 41.6297 6.81846 40.7451C5.30201 39.8605 4.11412 38.6094 3.2548 36.9919C2.39548 35.3743 1.96582 33.4788 1.96582 31.3052Z" fill="white"/>
<path d="M39.1366 31.2673C39.1366 29.1442 39.5662 27.2866 40.4256 25.6943C41.2849 24.0768 42.4601 22.8257 43.9513 21.9411C45.4678 21.0565 47.1485 20.6142 48.9935 20.6142C50.8132 20.6142 52.3929 21.006 53.7324 21.7895C55.0719 22.573 56.0703 23.5587 56.7274 24.7465V20.9554H60.2152V41.7308H56.7274V37.8638C56.045 39.077 55.0214 40.088 53.6566 40.8967C52.317 41.6802 50.75 42.072 48.9556 42.072C47.1106 42.072 45.4425 41.617 43.9513 40.7072C42.4601 39.7973 41.2849 38.521 40.4256 36.8781C39.5662 35.2353 39.1366 33.365 39.1366 31.2673ZM56.7274 31.3052C56.7274 29.7382 56.4115 28.3734 55.7796 27.2108C55.1478 26.0482 54.2884 25.1636 53.2016 24.557C52.1401 23.9251 50.9649 23.6092 49.6759 23.6092C48.3869 23.6092 47.2117 23.9125 46.1502 24.5191C45.0886 25.1257 44.242 26.0103 43.6101 27.1729C42.9782 28.3355 42.6623 29.7003 42.6623 31.2673C42.6623 32.8595 42.9782 34.2496 43.6101 35.4375C44.242 36.6001 45.0886 37.4974 46.1502 38.1292C47.2117 38.7358 48.3869 39.0391 49.6759 39.0391C50.9649 39.0391 52.1401 38.7358 53.2016 38.1292C54.2884 37.4974 55.1478 36.6001 55.7796 35.4375C56.4115 34.2496 56.7274 32.8722 56.7274 31.3052Z" fill="white"/>
<path d="M76.7946 23.7988H70.1397V41.7308H66.6897V23.7988H63.998V20.9554H66.6897V19.4769C66.6897 17.1517 67.2837 15.4583 68.4716 14.3968C69.6847 13.31 71.6182 12.7666 74.272 12.7666V15.6479C72.7555 15.6479 71.6814 15.9511 71.0495 16.5577C70.4429 17.139 70.1397 18.1121 70.1397 19.4769V20.9554H76.7946V23.7988Z" fill="white"/>
<path d="M82.73 23.7988V36.0441C82.73 37.0551 82.9449 37.7754 83.3745 38.205C83.8042 38.6094 84.5498 38.8116 85.6113 38.8116H88.1513V41.7308H85.0426C83.1218 41.7308 81.6812 41.2885 80.7207 40.4039C79.7603 39.5193 79.2801 38.066 79.2801 36.0441V23.7988H76.5884V20.9554H79.2801V15.7237H82.73V20.9554H88.1513V23.7988H82.73Z" fill="white"/>
<path d="M95.7813 13.6765V41.7308H92.3313V13.6765H95.7813Z" fill="white"/>
<path d="M100.372 31.2673C100.372 29.1442 100.802 27.2866 101.661 25.6943C102.52 24.0768 103.696 22.8257 105.187 21.9411C106.703 21.0565 108.384 20.6142 110.229 20.6142C112.049 20.6142 113.628 21.006 114.968 21.7895C116.307 22.573 117.306 23.5587 117.963 24.7465V20.9554H121.451V41.7308H117.963V37.8638C117.28 39.077 116.257 40.088 114.892 40.8967C113.553 41.6802 111.986 42.072 110.191 42.072C108.346 42.072 106.678 41.617 105.187 40.7072C103.696 39.7973 102.52 38.521 101.661 36.8781C100.802 35.2353 100.372 33.365 100.372 31.2673ZM117.963 31.3052C117.963 29.7382 117.647 28.3734 117.015 27.2108C116.383 26.0482 115.524 25.1636 114.437 24.557C113.376 23.9251 112.2 23.6092 110.911 23.6092C109.622 23.6092 108.447 23.9125 107.386 24.5191C106.324 25.1257 105.477 26.0103 104.846 27.1729C104.214 28.3355 103.898 29.7003 103.898 31.2673C103.898 32.8595 104.214 34.2496 104.846 35.4375C105.477 36.6001 106.324 37.4974 107.386 38.1292C108.447 38.7358 109.622 39.0391 110.911 39.0391C112.2 39.0391 113.376 38.7358 114.437 38.1292C115.524 37.4974 116.383 36.6001 117.015 35.4375C117.647 34.2496 117.963 32.8722 117.963 31.3052Z" fill="white"/>
<path d="M130.731 24.8224C131.438 23.5839 132.475 22.573 133.839 21.7895C135.204 21.006 136.759 20.6142 138.502 20.6142C140.373 20.6142 142.053 21.0565 143.545 21.9411C145.036 22.8257 146.211 24.0768 147.07 25.6943C147.93 27.2866 148.359 29.1442 148.359 31.2673C148.359 33.365 147.93 35.2353 147.07 36.8781C146.211 38.521 145.023 39.7973 143.507 40.7072C142.016 41.617 140.347 42.072 138.502 42.072C136.708 42.072 135.128 41.6802 133.764 40.8967C132.424 40.1132 131.413 39.1149 130.731 37.9017V41.7308H127.281V13.6765H130.731V24.8224ZM144.834 31.2673C144.834 29.7003 144.518 28.3355 143.886 27.1729C143.254 26.0103 142.395 25.1257 141.308 24.5191C140.246 23.9125 139.071 23.6092 137.782 23.6092C136.518 23.6092 135.343 23.9251 134.256 24.557C133.195 25.1636 132.336 26.0608 131.678 27.2487C131.047 28.4113 130.731 29.7635 130.731 31.3052C130.731 32.8722 131.047 34.2496 131.678 35.4375C132.336 36.6001 133.195 37.4974 134.256 38.1292C135.343 38.7358 136.518 39.0391 137.782 39.0391C139.071 39.0391 140.246 38.7358 141.308 38.1292C142.395 37.4974 143.254 36.6001 143.886 35.4375C144.518 34.2496 144.834 32.8595 144.834 31.2673Z" fill="white"/>
</g>
<path id="Line 1" d="M27.9202 41.7307L27.9202 22.4922L36.9736 22.4922" stroke="white" stroke-width="3.3243"/>
</g>
</g>
</svg>
